<svg width="27" height="27" viewBox="0 0 27 27" fill="none" xmlns="http://www.w3.org/2000/svg">
<g id="cash-out-svgrepo-com 1">
<path id="Vector" d="M12.6354 6.65625H10.1083C7.99041 6.65625 6.93148 6.65625 6.27354 7.30607C5.6156 7.95588 5.6156 9.00174 5.6156 11.0935L5.61566 18.0266H21.3399L21.34 11.0935C21.34 9.00174 21.34 7.95588 20.6821 7.30607C20.0241 6.65625 18.9652 6.65625 16.8473 6.65625H14.3202V12.1724L15.0846 11.2916C15.3873 10.9427 15.9191 10.9023 16.2724 11.2013C16.6256 11.5004 16.6665 12.0256 16.3638 12.3745L14.1175 14.9628C13.9574 15.1472 13.7238 15.2534 13.4778 15.2534C13.2319 15.2534 12.9983 15.1472 12.8383 14.9628L10.5919 12.3745C10.2891 12.0256 10.33 11.5004 10.6833 11.2013C11.0365 10.9023 11.5683 10.9427 11.8711 11.2916L12.6354 12.1724V6.65625Z" fill="#26A411"/>
<path id="Vector_2" d="M5.64996 19.6885H21.3056C21.248 20.5655 21.094 21.1277 20.6821 21.5346C20.0241 22.1844 18.9652 22.1844 16.8473 22.1844H10.1083C7.99041 22.1844 6.93147 22.1844 6.27354 21.5346C5.86155 21.1277 5.70754 20.5655 5.64996 19.6885Z" fill="#26A411"/>
<path id="Vector_3" d="M6.61466 3.3291H20.3423C22.7547 3.3291 24.7102 5.32583 24.7102 7.78891C24.7102 9.21919 24.0508 10.4922 23.0255 11.3083V10.995C23.0256 10.0347 23.0257 9.15431 22.9282 8.43812C22.8208 7.64945 22.5682 6.81586 21.874 6.13025C21.1799 5.44465 20.3359 5.19518 19.5373 5.08914C18.8122 4.99285 17.9207 4.99295 16.9485 4.99307H10.0084C9.03617 4.99295 8.14475 4.99285 7.4196 5.08914C6.62107 5.19518 5.77706 5.44465 5.08289 6.13025C4.38872 6.81586 4.13612 7.64945 4.02876 8.43812C3.93127 9.15431 3.93138 10.0347 3.93149 10.995L3.9315 11.3083C2.90617 10.4922 2.24677 9.21917 2.24677 7.78891C2.24677 5.32583 4.20234 3.3291 6.61466 3.3291Z" fill="#26A411"/>
</g>
</svg>
