<svg width="24" height="24" viewBox="0 0 24 24" fill="none" xmlns="http://www.w3.org/2000/svg">
<path d="M14.4727 6.67579V4.01368C14.4727 3.30764 14.228 2.63052 13.7925 2.13128C13.357 1.63203 12.7663 1.35156 12.1503 1.35156H4.02207C3.40614 1.35156 2.81544 1.63203 2.37991 2.13128C1.94438 2.63052 1.69971 3.30764 1.69971 4.01368V19.9864C1.69971 20.6924 1.94438 21.3695 2.37991 21.8688C2.81544 22.368 3.40614 22.6485 4.02207 22.6485H12.1503C12.7663 22.6485 13.357 22.368 13.7925 21.8688C14.228 21.3695 14.4727 20.6924 14.4727 19.9864V17.3242M8.66679 12H22.601M22.601 12L19.1174 8.00685M22.601 12L19.1174 15.9932" stroke="#029354" stroke-width="2.17721" stroke-linecap="round" stroke-linejoin="round"/>
</svg>
