<svg width="27" height="27" viewBox="0 0 27 27" fill="none" xmlns="http://www.w3.org/2000/svg">
<g id="offer-svgrepo-com 1">
<path id="Vector" d="M23.0163 13.3121L24.241 11.1956C24.3882 10.9409 24.4282 10.6383 24.3523 10.3541C24.2764 10.0699 24.0907 9.82757 23.8361 9.68027L21.7174 8.4556V6.01513C21.7174 5.72092 21.6005 5.43876 21.3924 5.23073C21.1844 5.02269 20.9023 4.90582 20.608 4.90582H18.1687L16.9451 2.78815C16.7973 2.53403 16.5554 2.34832 16.2718 2.27122C16.1311 2.23307 15.9842 2.22324 15.8397 2.24228C15.6951 2.26132 15.5558 2.30886 15.4298 2.38215L13.311 3.60682L11.1923 2.38104C10.9375 2.23394 10.6347 2.19408 10.3505 2.27022C10.0663 2.34636 9.82405 2.53227 9.67694 2.78704L8.45227 4.90582H6.0129C5.7187 4.90582 5.43654 5.02269 5.22851 5.23073C5.02047 5.43876 4.9036 5.72092 4.9036 6.01513V8.45449L2.78482 9.67916C2.6584 9.75188 2.54759 9.84887 2.45876 9.96455C2.36993 10.0802 2.30483 10.2123 2.26721 10.3532C2.22958 10.4941 2.22017 10.6411 2.23952 10.7857C2.25886 10.9302 2.30658 11.0695 2.37993 11.1956L3.6046 13.3121L2.37993 15.4287C2.23348 15.6836 2.19375 15.986 2.26939 16.2701C2.34503 16.5542 2.52991 16.7968 2.78371 16.9451L4.90249 18.1698V20.6092C4.90249 20.9034 5.01936 21.1855 5.2274 21.3936C5.43543 21.6016 5.71759 21.7185 6.01179 21.7185H8.45227L9.67694 23.8372C9.77515 24.0051 9.91537 24.1445 10.0838 24.2418C10.2522 24.339 10.4431 24.3908 10.6376 24.3919C10.8306 24.3919 11.0225 24.3409 11.1934 24.2421L13.3099 23.0175L15.4287 24.2421C15.6834 24.389 15.986 24.4289 16.2701 24.353C16.5541 24.2771 16.7965 24.0916 16.944 23.8372L18.1676 21.7185H20.6069C20.9011 21.7185 21.1833 21.6016 21.3913 21.3936C21.5994 21.1855 21.7162 20.9034 21.7162 20.6092V18.1698L23.835 16.9451C23.9612 16.8722 24.0718 16.7751 24.1605 16.6594C24.2491 16.5437 24.3141 16.4117 24.3517 16.2708C24.3893 16.13 24.3988 15.9831 24.3796 15.8386C24.3604 15.6941 24.313 15.5548 24.2399 15.4287L23.0163 13.3121ZM10.5367 7.75452C10.9781 7.75466 11.4014 7.93017 11.7135 8.24243C12.0255 8.5547 12.2008 8.97813 12.2006 9.41959C12.2005 9.86104 12.025 10.2844 11.7127 10.5964C11.4004 10.9085 10.977 11.0837 10.5355 11.0835C10.0941 11.0834 9.67077 10.9079 9.35872 10.5956C9.04666 10.2834 8.87144 9.85993 8.87159 9.41848C8.87173 8.97702 9.04724 8.5537 9.3595 8.24165C9.67176 7.9296 10.0952 7.75437 10.5367 7.75452ZM10.8694 18.4039L9.09456 17.0738L15.7504 8.19935L17.5253 9.52941L10.8694 18.4039ZM16.0832 18.8476C15.8646 18.8475 15.6482 18.8044 15.4462 18.7207C15.2443 18.6369 15.0609 18.5143 14.9064 18.3597C14.7518 18.205 14.6293 18.0215 14.5457 17.8195C14.4621 17.6176 14.4192 17.4011 14.4192 17.1825C14.4193 16.9639 14.4624 16.7475 14.5461 16.5456C14.6299 16.3436 14.7525 16.1602 14.9071 16.0057C15.0618 15.8512 15.2453 15.7286 15.4473 15.645C15.6492 15.5615 15.8657 15.5185 16.0843 15.5186C16.5258 15.5187 16.9491 15.6942 17.2611 16.0065C17.5732 16.3187 17.7484 16.7422 17.7483 17.1836C17.7481 17.6251 17.5726 18.0484 17.2603 18.3604C16.9481 18.6725 16.5246 18.8477 16.0832 18.8476Z" fill="#26A411"/>
</g>
</svg>
